<?xml version="1.0" standalone="no"?>
<!DOCTYPE svg PUBLIC "-//W3C//DTD SVG 20010904//EN"
 "http://www.w3.org/TR/2001/REC-SVG-20010904/DTD/svg10.dtd">
<svg version="1.0" xmlns="http://www.w3.org/2000/svg"
 width="957.000000pt" height="960.000000pt" viewBox="0 0 957.000000 960.000000"
 preserveAspectRatio="xMidYMid meet">

<g transform="translate(0.000000,960.000000) scale(0.100000,-0.100000)"
fill="#000000" stroke="none">
<path d="M4595 7830 c-469 -43 -888 -191 -1273 -448 -291 -195 -578 -494 -770
-801 -205 -330 -329 -685 -383 -1101 -18 -135 -15 -479 5 -620 27 -193 34
-231 61 -335 43 -164 129 -405 145 -405 4 0 15 11 24 25 43 66 270 285 457
440 126 105 781 585 929 681 25 16 47 31 50 34 5 6 282 189 380 252 122 78
333 208 467 288 91 54 144 92 147 105 3 11 6 48 6 83 0 102 42 167 109 167
l36 0 20 75 c11 42 23 81 27 87 4 5 25 13 45 16 25 4 55 22 88 50 l49 44 -17
44 c-22 58 -22 62 9 56 31 -6 155 25 189 47 13 9 41 36 62 61 25 30 50 49 75
55 34 10 37 14 48 66 13 60 7 128 -16 213 -14 48 -14 56 0 69 16 16 11 18 81
-32 17 -12 40 -13 142 -5 76 6 135 7 156 1 20 -6 40 -6 50 -1 10 6 34 5 62 -2
31 -8 53 -8 68 -2 12 6 31 7 42 2 63 -24 100 1 112 77 14 96 98 100 118 7 14
-68 126 -124 191 -95 31 15 42 -7 34 -63 -4 -32 -10 -41 -27 -43 -14 -2 -27 4
-35 17 -27 44 -49 16 -52 -64 -2 -52 -7 -59 -66 -91 -82 -45 -48 -39 57 9 54
25 139 62 188 82 50 21 98 42 109 47 16 9 6 23 -95 125 -180 182 -360 320
-582 447 -54 31 -100 56 -102 56 -2 0 -46 21 -97 46 -193 95 -510 186 -763
219 -144 19 -436 27 -560 15z m-838 -1023 c11 -9 43 -23 70 -30 58 -15 156
-74 150 -91 -2 -6 -11 -10 -21 -8 -29 5 -17 -17 24 -46 21 -15 39 -30 40 -34
0 -13 -38 -9 -77 7 -27 11 -39 13 -47 4 -8 -8 -6 -14 7 -23 11 -6 54 -38 97
-72 42 -33 91 -66 109 -73 17 -8 31 -20 31 -28 0 -12 -11 -13 -56 -7 -45 5
-56 4 -52 -7 2 -7 20 -17 39 -22 95 -23 109 -29 109 -41 0 -10 -22 -16 -75
-21 -79 -7 -96 -19 -42 -29 17 -3 52 -25 77 -47 25 -23 55 -48 68 -56 51 -35
10 -58 -49 -27 -39 20 -74 15 -74 -11 0 -13 19 -30 63 -55 86 -49 134 -88 130
-108 -5 -24 -35 -17 -88 20 -41 28 -55 32 -150 38 -58 4 -119 13 -136 20 -54
23 -64 11 -64 -73 0 -65 3 -78 28 -109 15 -20 44 -48 65 -64 36 -27 49 -54 25
-54 -7 0 -26 13 -43 29 -16 16 -47 32 -68 35 -34 6 -39 4 -44 -13 -7 -29 -16
-27 -64 19 -38 36 -47 40 -93 40 -41 -1 -59 -7 -90 -30 -25 -19 -57 -32 -88
-36 -27 -4 -55 -13 -63 -20 -17 -17 -38 -18 -33 -1 3 6 29 24 60 39 120 57
182 187 108 225 -19 9 -33 8 -74 -9 -114 -46 -160 -59 -200 -56 -67 5 -51 27
42 58 84 28 130 59 118 79 -11 17 -32 13 -89 -16 -57 -29 -146 -55 -159 -47
-14 9 -9 24 10 31 9 3 38 25 63 49 25 23 64 51 86 63 46 23 60 48 39 69 -13
13 -19 12 -49 -7 -38 -24 -77 -28 -77 -8 0 20 82 95 111 102 38 9 81 58 77 86
-3 22 -7 24 -50 21 -25 -2 -49 2 -52 7 -7 10 39 47 87 71 16 8 37 26 48 41 10
15 30 30 44 33 30 8 33 26 5 33 -30 8 -25 16 30 48 27 17 50 36 50 43 0 6 -3
11 -7 10 -23 -8 -1 24 52 77 l60 60 16 -30 c10 -17 26 -38 36 -48z"/>
<path d="M3570 6660 c0 -5 5 -10 10 -10 6 0 10 5 10 10 0 6 -4 10 -10 10 -5 0
-10 -4 -10 -10z"/>
<path d="M3678 6643 c-21 -5 -24 -33 -4 -33 25 0 46 12 46 26 0 14 -10 16 -42
7z"/>
<path d="M3755 6640 c3 -5 10 -10 16 -10 5 0 9 5 9 10 0 6 -7 10 -16 10 -8 0
-12 -4 -9 -10z"/>
<path d="M3817 6643 c-12 -11 -8 -23 8 -23 8 0 15 7 15 15 0 16 -12 20 -23 8z"/>
<path d="M3587 6592 c-21 -22 -21 -32 -4 -32 14 0 47 31 47 43 0 14 -27 7 -43
-11z"/>
<path d="M3764 6526 c-8 -22 3 -33 18 -18 9 9 9 15 0 24 -9 9 -13 7 -18 -6z"/>
<path d="M3690 6520 c0 -5 7 -10 15 -10 8 0 15 5 15 10 0 6 -7 10 -15 10 -8 0
-15 -4 -15 -10z"/>
<path d="M3833 6504 c-8 -22 11 -37 36 -29 25 8 28 30 5 39 -25 9 -34 7 -41
-10z"/>
<path d="M3530 6495 c0 -8 9 -15 19 -15 10 0 21 7 25 15 4 11 -1 15 -19 15
-16 0 -25 -6 -25 -15z"/>
<path d="M3457 6494 c-3 -4 -2 -15 4 -25 11 -21 49 -26 49 -6 0 26 -37 47 -53
31z"/>
<path d="M3925 6421 c-8 -15 3 -31 21 -31 9 0 14 7 12 17 -4 20 -24 28 -33 14z"/>
<path d="M3665 6380 c-3 -5 -1 -10 4 -10 6 0 11 5 11 10 0 6 -2 10 -4 10 -3 0
-8 -4 -11 -10z"/>
<path d="M3590 6366 c0 -9 5 -16 10 -16 6 0 10 4 10 9 0 6 -4 13 -10 16 -5 3
-10 -1 -10 -9z"/>
<path d="M3718 6365 c-10 -11 4 -45 19 -45 9 0 13 8 11 22 -3 21 -19 34 -30
23z"/>
<path d="M3770 6329 c0 -5 5 -7 10 -4 6 3 10 8 10 11 0 2 -4 4 -10 4 -5 0 -10
-5 -10 -11z"/>
<path d="M3405 6300 c-8 -14 13 -40 32 -40 23 0 74 30 68 40 -8 13 -92 13
-100 0z"/>
<path d="M3924 6239 c-29 -10 -39 -28 -20 -35 23 -9 66 4 66 20 0 19 -20 25
-46 15z"/>
<path d="M4018 6209 c-26 -14 -22 -39 5 -39 31 0 51 15 44 34 -7 18 -24 20
-49 5z"/>
<path d="M3540 6178 c0 -8 7 -23 15 -34 15 -18 15 -18 13 10 -3 29 -28 50 -28
24z"/>
<path d="M3687 6160 c3 -11 11 -19 17 -17 17 6 13 31 -6 35 -12 2 -15 -2 -11
-18z"/>
<path d="M3620 6156 c0 -9 5 -16 10 -16 6 0 10 4 10 9 0 6 -4 13 -10 16 -5 3
-10 -1 -10 -9z"/>
<path d="M7015 7737 l-27 -22 29 -31 c15 -16 42 -46 58 -66 17 -19 83 -91 148
-158 65 -68 117 -129 115 -136 -3 -13 -285 -234 -298 -234 -4 0 -38 14 -74 31
-36 17 -84 33 -106 36 -62 9 -51 -21 36 -97 42 -36 84 -77 95 -91 11 -16 28
-77 42 -145 20 -102 26 -119 42 -119 17 0 21 13 31 97 7 55 20 111 30 127 10
17 43 44 73 60 31 17 94 55 141 85 85 56 113 66 126 45 4 -7 41 -120 83 -253
83 -261 90 -273 136 -220 42 49 42 84 4 462 -6 61 -9 118 -6 125 3 8 58 49
124 93 143 95 200 146 224 199 37 81 13 121 -68 113 -48 -5 -234 -89 -336
-151 -62 -38 -85 -33 -179 36 -40 29 -134 95 -209 145 -151 102 -185 112 -234
69z"/>
<path d="M6750 6889 c-343 -153 -381 -172 -378 -188 3 -11 13 -15 33 -13 17 1
39 2 50 1 115 -4 124 -1 340 130 180 109 167 99 155 121 -6 11 -18 20 -28 19
-9 0 -87 -32 -172 -70z"/>
<path d="M6743 6772 c-67 -42 -125 -80 -128 -84 -4 -4 3 -27 14 -52 16 -33 33
-50 61 -63 22 -10 42 -25 45 -34 3 -9 27 -26 54 -39 28 -13 52 -31 55 -42 6
-25 -7 -59 -28 -77 -25 -21 -19 -70 16 -125 37 -59 45 -66 75 -66 36 0 45 -31
23 -73 -35 -65 -26 -116 32 -187 34 -42 35 -54 4 -68 -12 -5 -32 -27 -43 -49
-11 -21 -28 -53 -37 -71 -10 -18 -30 -39 -44 -47 -54 -29 -96 -83 -102 -133
-5 -44 -8 -49 -52 -72 -42 -22 -50 -23 -81 -12 -45 16 -78 4 -106 -41 -11 -18
-51 -61 -88 -94 -52 -46 -80 -81 -117 -149 -44 -81 -47 -89 -30 -99 9 -5 31
-22 47 -37 23 -22 40 -28 73 -28 35 0 47 -5 68 -31 34 -41 34 -83 0 -106 -23
-15 -33 -15 -87 -4 -34 7 -90 26 -125 42 -66 32 -80 30 -116 -10 -37 -41 -90
-36 -144 13 l-24 21 -18 -22 c-10 -13 -25 -23 -33 -23 -9 0 -29 -12 -46 -26
-24 -20 -37 -24 -60 -19 -29 6 -31 4 -66 -64 -24 -49 -42 -72 -58 -76 -35 -9
-127 -158 -127 -206 0 -32 -5 -40 -36 -59 -49 -31 -45 -64 9 -68 21 -2 59 -16
85 -33 25 -16 51 -29 56 -29 6 0 31 -18 55 -38 l44 -38 -17 -36 c-33 -69 -69
-89 -201 -113 -11 -2 -28 -10 -37 -17 -16 -12 -17 -16 -3 -42 28 -53 20 -74
-54 -145 -37 -37 -96 -81 -130 -100 -77 -41 -97 -62 -105 -112 -5 -31 -15 -45
-49 -70 -54 -39 -101 -59 -141 -59 -25 0 -35 -6 -49 -32 -23 -43 -87 -88 -134
-95 -44 -7 -62 -27 -63 -65 0 -16 -3 -28 -7 -28 -22 0 -77 45 -86 70 -12 31
-37 41 -37 15 0 -9 -12 -38 -27 -67 -22 -42 -26 -62 -25 -118 1 -36 -5 -89
-13 -116 -8 -27 -15 -59 -15 -72 0 -13 -11 -33 -25 -46 -14 -13 -25 -33 -25
-44 0 -29 -16 -36 -72 -33 -41 2 -52 -2 -73 -25 -14 -15 -25 -30 -25 -34 0 -4
-28 -11 -62 -14 -35 -4 -73 -10 -85 -13 -16 -4 -32 6 -63 37 -23 23 -45 53
-50 66 -11 27 -25 30 -67 12 -36 -15 -157 -28 -248 -28 -69 1 -167 8 -172 14
-2 1 2 16 7 33 7 18 25 37 47 49 23 12 48 39 67 71 17 29 41 60 54 68 28 20
48 60 62 118 8 36 6 56 -7 97 -15 46 -15 54 -2 64 25 19 87 158 94 211 6 46
40 156 71 231 7 17 28 42 46 56 59 46 110 104 128 149 46 113 80 209 80 224 0
9 13 50 29 93 16 42 32 92 36 110 4 17 10 32 15 32 20 0 40 34 40 70 0 26 14
66 45 124 45 86 45 87 45 190 0 79 -3 106 -15 116 -11 9 -12 17 -4 32 10 19
18 20 104 15 113 -6 126 0 148 80 21 74 50 120 87 141 32 18 39 39 16 48 -12
5 -116 -73 -351 -264 -5 -4 -79 -63 -164 -132 -290 -234 -447 -375 -697 -625
-313 -313 -549 -584 -712 -819 l-62 -89 29 -36 c90 -111 340 -327 501 -433
172 -112 225 -138 390 -188 58 -18 116 -36 129 -41 43 -17 16 -19 -39 -3 -30
8 -122 32 -205 54 -512 132 -720 207 -863 314 -85 63 -105 96 -98 165 11 120
130 306 405 636 198 237 622 653 881 865 30 25 57 47 60 51 17 20 481 386 702
553 69 53 79 69 113 187 15 53 5 132 -21 161 -13 14 -15 29 -11 68 3 27 4 50
1 50 -4 0 -164 -99 -329 -204 -125 -79 -518 -342 -644 -431 -197 -139 -700
-518 -851 -641 -279 -229 -528 -497 -649 -697 -203 -337 -239 -624 -110 -867
101 -189 297 -312 609 -381 138 -30 519 -38 710 -15 215 27 360 56 360 72 0
18 -9 19 96 -16 119 -41 251 -74 409 -102 117 -21 160 -23 425 -23 264 0 309
3 425 24 427 76 779 220 1110 455 570 404 966 1031 1084 1716 26 151 34 267
34 460 -1 425 -78 759 -271 1170 -23 50 -112 205 -157 275 -50 78 -154 215
-163 214 -4 0 -62 -35 -129 -77z"/>
<path d="M5495 6264 c-166 -23 -295 -84 -399 -187 -123 -123 -175 -256 -176
-449 0 -103 18 -174 66 -249 30 -47 118 -125 174 -154 125 -63 362 -73 512
-22 91 31 178 82 178 105 0 12 3 13 11 5 9 -9 9 -23 0 -57 -14 -57 -15 -53 12
-53 19 0 29 17 75 136 30 75 94 217 143 317 l89 181 218 6 c235 6 447 -8 476
-32 13 -11 20 -11 29 -2 16 16 -22 52 -60 58 -15 2 -111 6 -213 8 -291 6 -390
14 -390 31 0 28 -31 28 -56 0 -22 -23 -32 -26 -97 -26 -40 0 -101 -5 -137 -11
-36 -6 -80 -11 -98 -10 -18 1 -49 -3 -70 -8 -21 -6 -73 -16 -117 -22 -44 -6
-89 -16 -100 -23 -11 -7 -41 -15 -67 -18 -56 -6 -78 -22 -78 -53 0 -19 15 -27
106 -61 58 -21 119 -46 134 -56 26 -15 28 -20 20 -55 -5 -21 -13 -64 -20 -95
l-11 -58 -56 -16 c-85 -25 -222 -16 -289 19 -103 52 -140 128 -132 267 5 74
11 102 36 153 50 101 127 169 230 202 41 13 78 16 160 13 116 -4 144 -14 218
-74 l41 -33 87 71 88 70 -43 44 c-50 51 -134 98 -213 118 -59 16 -228 28 -281
20z m305 -434 c-8 -5 -22 -10 -30 -10 -13 0 -13 1 0 10 8 5 22 10 30 10 13 0
13 -1 0 -10z m340 6 c0 -2 -27 -55 -59 -117 -33 -63 -85 -175 -116 -249 -32
-74 -59 -136 -60 -138 -2 -2 -8 22 -15 52 -10 50 -8 71 15 184 14 70 28 135
30 145 3 15 -8 17 -110 17 l-113 0 -7 -37 c-4 -21 -9 -41 -11 -45 -2 -3 -30 6
-62 22 -31 15 -83 36 -115 46 -31 10 -54 21 -50 24 5 4 64 18 133 31 88 16
118 25 100 29 -24 6 -23 7 10 15 23 5 35 4 38 -4 2 -6 13 -9 25 -6 62 16 367
41 367 31z"/>
<path d="M6032 1931 c-8 -4 -12 -19 -10 -32 2 -18 9 -24 28 -24 19 0 26 6 28
24 3 20 -11 41 -28 41 -3 0 -11 -4 -18 -9z"/>
<path d="M3100 1735 l0 -195 25 0 c25 0 25 1 25 79 0 123 22 160 93 161 57 0
77 -39 77 -152 0 -88 0 -88 26 -88 l26 0 -4 111 -3 111 -33 29 c-26 23 -42 29
-78 29 -25 0 -58 -7 -74 -15 l-30 -16 0 71 c0 68 -1 70 -25 70 l-25 0 0 -195z"/>
<path d="M4000 1860 c0 -38 -3 -70 -7 -70 -5 0 -17 7 -27 15 -12 9 -42 15 -73
15 -46 0 -58 -4 -89 -33 -63 -58 -64 -156 0 -214 31 -29 43 -33 89 -33 31 0
61 6 73 15 25 19 34 19 34 -1 0 -10 7 -14 23 -12 22 3 22 4 25 196 l2 192 -25
0 c-24 0 -25 -2 -25 -70z m-56 -91 c24 -11 56 -62 56 -89 0 -27 -32 -78 -56
-89 -41 -18 -74 -13 -105 18 -78 78 5 205 105 160z"/>
<path d="M2808 1911 c-86 -28 -138 -95 -138 -177 0 -88 29 -138 102 -175 46
-24 133 -25 188 -3 40 16 40 17 41 70 1 30 2 64 2 77 1 17 -4 22 -23 22 -24 0
-25 -4 -28 -62 l-3 -62 -39 -11 c-46 -13 -112 0 -142 27 -75 68 -59 190 32
235 47 24 94 23 141 -4 32 -18 41 -19 54 -8 45 37 -108 96 -187 71z"/>
<path d="M4780 1890 c0 -18 7 -20 65 -20 l65 0 0 -165 0 -165 25 0 25 0 2 163
3 162 63 3 c54 3 62 6 62 22 0 19 -8 20 -155 20 -148 0 -155 -1 -155 -20z"/>
<path d="M3478 1804 c-30 -16 -32 -21 -19 -42 7 -12 14 -11 39 2 64 33 132 11
132 -42 0 -20 -5 -22 -61 -22 -87 0 -128 -27 -129 -83 0 -46 40 -77 100 -77
28 0 61 5 72 11 15 8 22 8 28 -1 4 -7 16 -10 26 -8 17 3 19 14 19 112 l-1 109
-32 28 c-28 25 -40 29 -90 29 -31 -1 -69 -8 -84 -16z m150 -163 c6 -36 -25
-61 -74 -61 -33 0 -46 5 -54 20 -19 35 3 58 58 63 64 5 67 4 70 -22z"/>
<path d="M4184 1801 c-87 -53 -82 -192 9 -246 36 -22 114 -22 155 -1 35 18 39
28 18 45 -10 8 -20 8 -42 -4 -54 -28 -115 -12 -140 37 -17 32 -27 30 124 28
l92 -1 0 31 c0 41 -23 84 -59 109 -38 27 -114 28 -157 2z m135 -47 c53 -44 43
-54 -59 -54 -49 0 -90 4 -90 9 0 5 13 23 29 40 37 39 78 41 120 5z"/>
<path d="M4470 1680 l0 -140 25 0 c24 0 25 2 25 74 0 111 22 156 78 156 20 0
36 25 26 41 -9 16 -50 10 -78 -12 l-26 -20 0 20 c0 16 -6 21 -25 21 l-25 0 0
-140z"/>
<path d="M5153 1800 c-88 -53 -82 -199 9 -246 39 -20 107 -20 147 1 89 46 95
193 9 245 -44 26 -122 27 -165 0z m140 -43 c54 -43 45 -134 -17 -163 -65 -31
-125 4 -133 79 -5 43 -3 49 27 77 39 37 83 39 123 7z"/>
<path d="M5450 1720 c0 -110 9 -139 50 -163 35 -21 110 -22 136 -2 25 19 34
19 34 0 0 -8 9 -15 20 -15 19 0 20 7 20 140 l0 140 -25 0 c-25 0 -25 -1 -25
-92 -1 -96 -7 -115 -47 -136 -34 -18 -62 -14 -88 13 -23 22 -25 32 -25 120 0
95 0 95 -25 95 -25 0 -25 0 -25 -100z"/>
<path d="M5810 1679 l0 -140 27 3 c21 2 28 9 28 28 1 14 2 55 3 91 2 73 24
109 66 109 22 0 42 31 28 44 -12 13 -51 5 -76 -15 l-26 -20 0 20 c0 16 -6 21
-25 21 l-25 0 0 -141z"/>
<path d="M6029 1803 c0 -16 0 -216 1 -250 0 -7 11 -13 25 -13 l25 0 0 140 0
140 -25 0 c-17 0 -25 -6 -26 -17z"/>
<path d="M6178 1796 c-34 -30 -37 -77 -9 -105 11 -11 47 -25 80 -32 65 -12 85
-27 75 -52 -9 -25 -72 -33 -122 -15 -40 15 -43 15 -52 -2 -6 -10 -10 -21 -10
-23 0 -12 68 -27 122 -27 52 0 63 3 89 29 16 16 29 39 29 51 0 31 -41 66 -86
74 -68 12 -95 27 -92 50 4 30 49 43 101 28 36 -9 44 -9 55 5 19 27 -1 37 -81
41 -66 4 -74 2 -99 -22z"/>
<path d="M6440 1680 l0 -140 25 0 c25 0 25 1 25 79 0 94 12 134 46 150 38 17
63 13 89 -14 23 -22 25 -32 25 -120 0 -95 0 -95 25 -95 25 0 25 1 25 85 0 46
5 95 11 109 15 33 62 52 97 40 39 -14 52 -48 52 -146 0 -87 0 -88 25 -88 25 0
25 0 25 96 0 145 -27 184 -124 184 -28 0 -52 -7 -69 -20 -14 -11 -28 -20 -31
-20 -4 0 -16 9 -28 20 -27 25 -113 28 -146 4 -20 -14 -22 -14 -22 0 0 10 -9
16 -25 16 l-25 0 0 -140z"/>
<path d="M3580 1201 c0 -154 7 -177 63 -192 60 -16 639 -8 660 9 9 7 18 9 21
4 10 -17 76 -24 111 -12 25 8 45 8 75 0 33 -9 47 -8 70 3 25 13 34 13 72 0 35
-12 49 -13 76 -3 26 9 40 9 63 0 17 -7 44 -9 66 -5 21 3 72 6 114 5 61 -1 80
2 100 18 23 20 24 24 24 159 0 131 -1 138 -20 138 -19 0 -20 -8 -23 -133 l-3
-133 -27 -10 c-15 -6 -41 -8 -59 -4 l-33 6 0 139 c0 133 -1 140 -20 140 -19 0
-20 -7 -20 -129 0 -159 -14 -182 -94 -151 -25 9 -26 14 -26 80 0 63 -2 70 -20
70 -18 0 -20 -7 -20 -64 0 -89 -33 -119 -88 -80 -17 12 -22 25 -22 60 0 37 -3
44 -20 44 -17 0 -20 -7 -20 -50 0 -43 -3 -52 -23 -59 -13 -5 -35 -7 -50 -4
-25 5 -27 9 -27 59 0 47 -2 54 -20 54 -17 0 -20 -7 -20 -44 0 -68 -32 -90 -94
-66 -25 9 -26 14 -26 80 0 63 -2 70 -20 70 -18 0 -20 -7 -20 -70 0 -58 -3 -71
-19 -80 -12 -6 -129 -10 -309 -10 -261 0 -292 2 -311 18 -19 15 -21 29 -23
142 -3 110 -5 125 -20 128 -16 3 -18 -8 -18 -127z"/>
<path d="M5714 1316 c-3 -8 -4 -71 -2 -140 3 -115 5 -127 26 -148 l23 -23 584
-3 c572 -3 585 -2 585 16 0 17 -9 20 -61 24 -68 5 -79 14 -79 70 0 46 19 58
90 58 44 0 51 3 48 18 -3 13 -15 18 -65 20 -53 3 -65 0 -89 -22 -26 -22 -29
-30 -29 -85 l1 -62 -484 3 c-465 3 -484 4 -498 22 -10 15 -14 52 -14 143 0
104 -2 123 -15 123 -9 0 -18 -6 -21 -14z"/>
<path d="M2734 1295 c-4 -9 -2 -21 4 -27 15 -15 44 -1 40 19 -4 23 -36 29 -44
8z"/>
<path d="M2800 1285 c0 -29 34 -36 44 -9 8 21 -1 34 -25 34 -14 0 -19 -7 -19
-25z"/>
<path d="M6837 1294 c-4 -4 -7 -16 -7 -26 0 -14 6 -19 23 -16 14 2 22 10 22
23 0 20 -25 32 -38 19z"/>
<path d="M2724 1206 c-62 -27 -73 -138 -18 -184 23 -20 34 -23 68 -17 23 3 52
5 66 5 165 -8 633 -9 654 -1 24 10 26 14 26 77 0 59 -3 68 -29 95 -25 24 -38
29 -79 29 -76 0 -113 -10 -110 -29 3 -13 15 -15 70 -13 84 5 108 -14 108 -83
l0 -45 -282 0 c-156 0 -293 3 -305 6 -21 6 -23 12 -23 80 0 40 -3 75 -7 77
-23 14 -111 16 -139 3z m104 -86 c3 -59 -11 -80 -53 -80 -38 0 -57 23 -59 69
-1 52 22 73 74 69 35 -3 35 -3 38 -58z"/>
<path d="M5470 1202 c0 -16 11 -23 51 -32 67 -16 89 -39 89 -90 l0 -40 -90 0
c-90 0 -97 -3 -81 -29 12 -19 188 -11 202 10 6 8 8 38 6 67 -5 78 -37 106
-144 127 -28 6 -33 4 -33 -13z"/>
<path d="M5340 1066 c0 -142 -3 -151 -49 -139 -16 4 -21 1 -21 -15 0 -15 8
-21 33 -25 73 -11 87 20 87 189 l0 124 -25 0 -25 0 0 -134z"/>
<path d="M4243 954 c-6 -16 12 -34 35 -34 6 0 12 11 12 25 0 18 -5 25 -20 25
-11 0 -23 -7 -27 -16z"/>
<path d="M4313 954 c-3 -8 -1 -20 5 -26 16 -16 42 -2 42 22 0 24 -38 28 -47 4z"/>
</g>
</svg>
